<svg xmlns="http://www.w3.org/2000/svg" width="980" height="812" viewBox="0 0 980 812" role="img" aria-labelledby="title desc">
<title id="title">Boundary Reasoning</title>
<desc id="desc">How often reports correctly identified the tenant, role, token, or object boundary.</desc>
<rect x="0.0" y="0.0" width="980.0" height="812.0" rx="0" fill="#ffffff"/>
<rect x="18.0" y="18.0" width="944.0" height="776.0" rx="8" fill="#f6f8fb"/>
<text x="36.0" y="54.0" fill="#0b1f4d" font-family="Inter, Arial, sans-serif" font-size="22" font-weight="700">Boundary Reasoning</text>
<text x="36.0" y="78.0" fill="#5b667a" font-family="Inter, Arial, sans-serif" font-size="12" font-weight="400">How often reports correctly identified the tenant, role, token, or object boundary.</text>
<text x="42.0" y="104.0" fill="#5b667a" font-family="Inter, Arial, sans-serif" font-size="12" font-weight="400">This separates real authorization reasoning from generic vulnerability language.</text>
<text x="430.0" y="130.0" fill="#5b667a" font-family="Inter, Arial, sans-serif" font-size="11" font-weight="400">0%</text>
<text x="664.0" y="130.0" fill="#5b667a" font-family="Inter, Arial, sans-serif" font-size="11" font-weight="400">100%</text>
<text x="42.0" y="156.0" fill="#172033" font-family="Inter, Arial, sans-serif" font-size="13" font-weight="600">Claude Haiku 4.5</text>
<text x="42.0" y="174.0" fill="#5b667a" font-family="Inter, Arial, sans-serif" font-size="11" font-weight="400">current 49-task split</text>
<rect x="430.0" y="142.0" width="260.0" height="14.0" rx="3" fill="#e6ebf2"/>
<rect x="430.0" y="142.0" width="0.0" height="14.0" rx="3" fill="#f59e0b"/>
<text x="708.0" y="154.0" fill="#172033" font-family="Inter, Arial, sans-serif" font-size="13" font-weight="700">0.0%</text>
<text x="42.0" y="210.0" fill="#64748b" font-family="Inter, Arial, sans-serif" font-size="13" font-weight="600">Tool agent: Claude Sonnet 4.6 (stale)</text>
<text x="42.0" y="228.0" fill="#5b667a" font-family="Inter, Arial, sans-serif" font-size="11" font-weight="400">stale 44-task split</text>
<rect x="430.0" y="196.0" width="260.0" height="14.0" rx="3" fill="#e6ebf2"/>
<rect x="430.0" y="196.0" width="0.0" height="14.0" rx="3" fill="#64748b"/>
<text x="708.0" y="208.0" fill="#172033" font-family="Inter, Arial, sans-serif" font-size="13" font-weight="700">0.0%</text>
<text x="42.0" y="264.0" fill="#64748b" font-family="Inter, Arial, sans-serif" font-size="13" font-weight="600">Tool agent: Claude Sonnet 4.6 (stale)</text>
<text x="42.0" y="282.0" fill="#5b667a" font-family="Inter, Arial, sans-serif" font-size="11" font-weight="400">stale 46-task split</text>
<rect x="430.0" y="250.0" width="260.0" height="14.0" rx="3" fill="#e6ebf2"/>
<rect x="430.0" y="250.0" width="0.0" height="14.0" rx="3" fill="#64748b"/>
<text x="708.0" y="262.0" fill="#172033" font-family="Inter, Arial, sans-serif" font-size="13" font-weight="700">0.0%</text>
<text x="42.0" y="318.0" fill="#64748b" font-family="Inter, Arial, sans-serif" font-size="13" font-weight="600">Claude Sonnet 4.6 (stale)</text>
<text x="42.0" y="336.0" fill="#5b667a" font-family="Inter, Arial, sans-serif" font-size="11" font-weight="400">stale 44-task split</text>
<rect x="430.0" y="304.0" width="260.0" height="14.0" rx="3" fill="#e6ebf2"/>
<rect x="430.0" y="304.0" width="43.3" height="14.0" rx="3" fill="#64748b"/>
<text x="708.0" y="316.0" fill="#172033" font-family="Inter, Arial, sans-serif" font-size="13" font-weight="700">16.7%</text>
<text x="42.0" y="372.0" fill="#64748b" font-family="Inter, Arial, sans-serif" font-size="13" font-weight="600">Claude Opus 4.6 (stale)</text>
<text x="42.0" y="390.0" fill="#5b667a" font-family="Inter, Arial, sans-serif" font-size="11" font-weight="400">stale 44-task split</text>
<rect x="430.0" y="358.0" width="260.0" height="14.0" rx="3" fill="#e6ebf2"/>
<rect x="430.0" y="358.0" width="14.5" height="14.0" rx="3" fill="#64748b"/>
<text x="708.0" y="370.0" fill="#172033" font-family="Inter, Arial, sans-serif" font-size="13" font-weight="700">5.6%</text>
<text x="42.0" y="426.0" fill="#64748b" font-family="Inter, Arial, sans-serif" font-size="13" font-weight="600">Claude Sonnet 4.6 (stale)</text>
<text x="42.0" y="444.0" fill="#5b667a" font-family="Inter, Arial, sans-serif" font-size="11" font-weight="400">stale 46-task split</text>
<rect x="430.0" y="412.0" width="260.0" height="14.0" rx="3" fill="#e6ebf2"/>
<rect x="430.0" y="412.0" width="0.0" height="14.0" rx="3" fill="#64748b"/>
<text x="708.0" y="424.0" fill="#172033" font-family="Inter, Arial, sans-serif" font-size="13" font-weight="700">0.0%</text>
<text x="42.0" y="480.0" fill="#64748b" font-family="Inter, Arial, sans-serif" font-size="13" font-weight="600">Claude Haiku 4.5 (stale)</text>
<text x="42.0" y="498.0" fill="#5b667a" font-family="Inter, Arial, sans-serif" font-size="11" font-weight="400">stale 44-task split</text>
<rect x="430.0" y="466.0" width="260.0" height="14.0" rx="3" fill="#e6ebf2"/>
<rect x="430.0" y="466.0" width="0.0" height="14.0" rx="3" fill="#64748b"/>
<text x="708.0" y="478.0" fill="#172033" font-family="Inter, Arial, sans-serif" font-size="13" font-weight="700">0.0%</text>
<text x="42.0" y="534.0" fill="#64748b" font-family="Inter, Arial, sans-serif" font-size="13" font-weight="600">Claude Haiku 4.5 (stale)</text>
<text x="42.0" y="552.0" fill="#5b667a" font-family="Inter, Arial, sans-serif" font-size="11" font-weight="400">stale 46-task split</text>
<rect x="430.0" y="520.0" width="260.0" height="14.0" rx="3" fill="#e6ebf2"/>
<rect x="430.0" y="520.0" width="0.0" height="14.0" rx="3" fill="#64748b"/>
<text x="708.0" y="532.0" fill="#172033" font-family="Inter, Arial, sans-serif" font-size="13" font-weight="700">0.0%</text>
<text x="42.0" y="588.0" fill="#64748b" font-family="Inter, Arial, sans-serif" font-size="13" font-weight="600">glm-5 (stale)</text>
<text x="42.0" y="606.0" fill="#5b667a" font-family="Inter, Arial, sans-serif" font-size="11" font-weight="400">stale 46-task split</text>
<rect x="430.0" y="574.0" width="260.0" height="14.0" rx="3" fill="#e6ebf2"/>
<rect x="430.0" y="574.0" width="0.0" height="14.0" rx="3" fill="#64748b"/>
<text x="708.0" y="586.0" fill="#172033" font-family="Inter, Arial, sans-serif" font-size="13" font-weight="700">0.0%</text>
<text x="42.0" y="642.0" fill="#64748b" font-family="Inter, Arial, sans-serif" font-size="13" font-weight="600">Qwen3 Coder Next (stale)</text>
<text x="42.0" y="660.0" fill="#5b667a" font-family="Inter, Arial, sans-serif" font-size="11" font-weight="400">stale 46-task split</text>
<rect x="430.0" y="628.0" width="260.0" height="14.0" rx="3" fill="#e6ebf2"/>
<rect x="430.0" y="628.0" width="0.0" height="14.0" rx="3" fill="#64748b"/>
<text x="708.0" y="640.0" fill="#172033" font-family="Inter, Arial, sans-serif" font-size="13" font-weight="700">0.0%</text>
<text x="42.0" y="696.0" fill="#64748b" font-family="Inter, Arial, sans-serif" font-size="13" font-weight="600">DeepSeek 3.2 (stale)</text>
<text x="42.0" y="714.0" fill="#5b667a" font-family="Inter, Arial, sans-serif" font-size="11" font-weight="400">stale 44-task split</text>
<rect x="430.0" y="682.0" width="260.0" height="14.0" rx="3" fill="#e6ebf2"/>
<rect x="430.0" y="682.0" width="0.0" height="14.0" rx="3" fill="#64748b"/>
<text x="708.0" y="694.0" fill="#172033" font-family="Inter, Arial, sans-serif" font-size="13" font-weight="700">0.0%</text>
<text x="42.0" y="750.0" fill="#64748b" font-family="Inter, Arial, sans-serif" font-size="13" font-weight="600">Qwen3 Coder Next (stale)</text>
<text x="42.0" y="768.0" fill="#5b667a" font-family="Inter, Arial, sans-serif" font-size="11" font-weight="400">stale 44-task split</text>
<rect x="430.0" y="736.0" width="260.0" height="14.0" rx="3" fill="#e6ebf2"/>
<rect x="430.0" y="736.0" width="0.0" height="14.0" rx="3" fill="#64748b"/>
<text x="708.0" y="748.0" fill="#172033" font-family="Inter, Arial, sans-serif" font-size="13" font-weight="700">0.0%</text>
<text x="36.0" y="788.0" fill="#5b667a" font-family="Inter, Arial, sans-serif" font-size="11" font-weight="400">Source: tracked AuthZBench-SaaS baseline and redacted evidence JSON. Public-split evidence is not leaderboard ranking.</text>
</svg>
