<svg xmlns="http://www.w3.org/2000/svg" width="1380" height="572" viewBox="0 0 1380 572" role="img" aria-labelledby="title desc">
<title id="title">Public Baseline Metrics</title>
<desc id="desc">Current rows plus stale public-split snapshots where rerun is required; not private leaderboard results.</desc>
<rect x="0.0" y="0.0" width="1380.0" height="572.0" rx="0" fill="#ffffff"/>
<rect x="18.0" y="18.0" width="1344.0" height="536.0" rx="8" fill="#f6f8fb"/>
<text x="36.0" y="54.0" fill="#0b1f4d" font-family="Inter, Arial, sans-serif" font-size="22" font-weight="700">Public Baseline Metrics</text>
<text x="36.0" y="78.0" fill="#5b667a" font-family="Inter, Arial, sans-serif" font-size="12" font-weight="400">Current rows plus stale public-split snapshots where rerun is required; not private leaderboard results.</text>
<rect x="430.0" y="94.0" width="12.0" height="12.0" rx="2" fill="#2ea8a1"/>
<text x="448.0" y="105.0" fill="#5b667a" font-family="Inter, Arial, sans-serif" font-size="12" font-weight="400">Pass</text>
<rect x="635.0" y="94.0" width="12.0" height="12.0" rx="2" fill="#2f7de1"/>
<text x="653.0" y="105.0" fill="#5b667a" font-family="Inter, Arial, sans-serif" font-size="12" font-weight="400">Exploit proof</text>
<rect x="840.0" y="94.0" width="12.0" height="12.0" rx="2" fill="#f59e0b"/>
<text x="858.0" y="105.0" fill="#5b667a" font-family="Inter, Arial, sans-serif" font-size="12" font-weight="400">Boundary</text>
<rect x="1045.0" y="94.0" width="12.0" height="12.0" rx="2" fill="#d9480f"/>
<text x="1063.0" y="105.0" fill="#5b667a" font-family="Inter, Arial, sans-serif" font-size="12" font-weight="400">False positive (lower is better)</text>
<text x="36.0" y="140.0" fill="#64748b" font-family="Inter, Arial, sans-serif" font-size="13" font-weight="600">Tool agent: Claude Sonnet 4.6 (stale)</text>
<text x="36.0" y="158.0" fill="#5b667a" font-family="Inter, Arial, sans-serif" font-size="11" font-weight="400">tool agent; 2 runs; stale 63-task split; rerun required; offline v2</text>
<rect x="430.0" y="130.0" width="128.0" height="12.0" rx="3" fill="#e6ebf2"/>
<rect x="430.0" y="130.0" width="86.3" height="12.0" rx="3" fill="#64748b"/>
<text x="430.0" y="152.0" fill="#5b667a" font-family="Inter, Arial, sans-serif" font-size="11" font-weight="400">67.5%</text>
<rect x="635.0" y="130.0" width="128.0" height="12.0" rx="3" fill="#e6ebf2"/>
<rect x="635.0" y="130.0" width="78.2" height="12.0" rx="3" fill="#64748b"/>
<text x="635.0" y="152.0" fill="#5b667a" font-family="Inter, Arial, sans-serif" font-size="11" font-weight="400">61.1%</text>
<rect x="840.0" y="130.0" width="128.0" height="12.0" rx="3" fill="#e6ebf2"/>
<rect x="840.0" y="130.0" width="45.0" height="12.0" rx="3" fill="#64748b"/>
<text x="840.0" y="152.0" fill="#5b667a" font-family="Inter, Arial, sans-serif" font-size="11" font-weight="400">35.2%</text>
<rect x="1045.0" y="130.0" width="128.0" height="12.0" rx="3" fill="#e6ebf2"/>
<rect x="1045.0" y="130.0" width="0.0" height="12.0" rx="3" fill="#64748b"/>
<text x="1045.0" y="152.0" fill="#5b667a" font-family="Inter, Arial, sans-serif" font-size="11" font-weight="400">0.0%</text>
<text x="36.0" y="202.0" fill="#64748b" font-family="Inter, Arial, sans-serif" font-size="13" font-weight="600">Gemini 3.1 Pro (stale)</text>
<text x="36.0" y="220.0" fill="#5b667a" font-family="Inter, Arial, sans-serif" font-size="11" font-weight="400">model; 2 runs; stale 63-task split; rerun required; offline v2</text>
<rect x="430.0" y="192.0" width="128.0" height="12.0" rx="3" fill="#e6ebf2"/>
<rect x="430.0" y="192.0" width="71.1" height="12.0" rx="3" fill="#64748b"/>
<text x="430.0" y="214.0" fill="#5b667a" font-family="Inter, Arial, sans-serif" font-size="11" font-weight="400">55.6%</text>
<rect x="635.0" y="192.0" width="128.0" height="12.0" rx="3" fill="#e6ebf2"/>
<rect x="635.0" y="192.0" width="80.6" height="12.0" rx="3" fill="#64748b"/>
<text x="635.0" y="214.0" fill="#5b667a" font-family="Inter, Arial, sans-serif" font-size="11" font-weight="400">63.0%</text>
<rect x="840.0" y="192.0" width="128.0" height="12.0" rx="3" fill="#e6ebf2"/>
<rect x="840.0" y="192.0" width="2.4" height="12.0" rx="3" fill="#64748b"/>
<text x="840.0" y="214.0" fill="#5b667a" font-family="Inter, Arial, sans-serif" font-size="11" font-weight="400">1.8%</text>
<rect x="1045.0" y="192.0" width="128.0" height="12.0" rx="3" fill="#e6ebf2"/>
<rect x="1045.0" y="192.0" width="0.0" height="12.0" rx="3" fill="#64748b"/>
<text x="1045.0" y="214.0" fill="#5b667a" font-family="Inter, Arial, sans-serif" font-size="11" font-weight="400">0.0%</text>
<text x="36.0" y="264.0" fill="#64748b" font-family="Inter, Arial, sans-serif" font-size="13" font-weight="600">Claude Sonnet 4.6 (stale)</text>
<text x="36.0" y="282.0" fill="#5b667a" font-family="Inter, Arial, sans-serif" font-size="11" font-weight="400">model; 2 runs; stale 63-task split; rerun required; offline v2</text>
<rect x="430.0" y="254.0" width="128.0" height="12.0" rx="3" fill="#e6ebf2"/>
<rect x="430.0" y="254.0" width="83.3" height="12.0" rx="3" fill="#64748b"/>
<text x="430.0" y="276.0" fill="#5b667a" font-family="Inter, Arial, sans-serif" font-size="11" font-weight="400">65.1%</text>
<rect x="635.0" y="254.0" width="128.0" height="12.0" rx="3" fill="#e6ebf2"/>
<rect x="635.0" y="254.0" width="78.2" height="12.0" rx="3" fill="#64748b"/>
<text x="635.0" y="276.0" fill="#5b667a" font-family="Inter, Arial, sans-serif" font-size="11" font-weight="400">61.1%</text>
<rect x="840.0" y="254.0" width="128.0" height="12.0" rx="3" fill="#e6ebf2"/>
<rect x="840.0" y="254.0" width="35.6" height="12.0" rx="3" fill="#64748b"/>
<text x="840.0" y="276.0" fill="#5b667a" font-family="Inter, Arial, sans-serif" font-size="11" font-weight="400">27.8%</text>
<rect x="1045.0" y="254.0" width="128.0" height="12.0" rx="3" fill="#e6ebf2"/>
<rect x="1045.0" y="254.0" width="1.8" height="12.0" rx="3" fill="#64748b"/>
<text x="1045.0" y="276.0" fill="#5b667a" font-family="Inter, Arial, sans-serif" font-size="11" font-weight="400">1.4%</text>
<text x="36.0" y="326.0" fill="#64748b" font-family="Inter, Arial, sans-serif" font-size="13" font-weight="600">Claude Opus 4.6 (stale)</text>
<text x="36.0" y="344.0" fill="#5b667a" font-family="Inter, Arial, sans-serif" font-size="11" font-weight="400">model; 2 runs; stale 63-task split; rerun required; offline v2</text>
<rect x="430.0" y="316.0" width="128.0" height="12.0" rx="3" fill="#e6ebf2"/>
<rect x="430.0" y="316.0" width="80.3" height="12.0" rx="3" fill="#64748b"/>
<text x="430.0" y="338.0" fill="#5b667a" font-family="Inter, Arial, sans-serif" font-size="11" font-weight="400">62.7%</text>
<rect x="635.0" y="316.0" width="128.0" height="12.0" rx="3" fill="#e6ebf2"/>
<rect x="635.0" y="316.0" width="71.1" height="12.0" rx="3" fill="#64748b"/>
<text x="635.0" y="338.0" fill="#5b667a" font-family="Inter, Arial, sans-serif" font-size="11" font-weight="400">55.6%</text>
<rect x="840.0" y="316.0" width="128.0" height="12.0" rx="3" fill="#e6ebf2"/>
<rect x="840.0" y="316.0" width="30.8" height="12.0" rx="3" fill="#64748b"/>
<text x="840.0" y="338.0" fill="#5b667a" font-family="Inter, Arial, sans-serif" font-size="11" font-weight="400">24.1%</text>
<rect x="1045.0" y="316.0" width="128.0" height="12.0" rx="3" fill="#e6ebf2"/>
<rect x="1045.0" y="316.0" width="0.0" height="12.0" rx="3" fill="#64748b"/>
<text x="1045.0" y="338.0" fill="#5b667a" font-family="Inter, Arial, sans-serif" font-size="11" font-weight="400">0.0%</text>
<text x="36.0" y="388.0" fill="#64748b" font-family="Inter, Arial, sans-serif" font-size="13" font-weight="600">Claude Haiku 4.5 (stale)</text>
<text x="36.0" y="406.0" fill="#5b667a" font-family="Inter, Arial, sans-serif" font-size="11" font-weight="400">model; 2 runs; stale 63-task split; rerun required; offline v2</text>
<rect x="430.0" y="378.0" width="128.0" height="12.0" rx="3" fill="#e6ebf2"/>
<rect x="430.0" y="378.0" width="75.2" height="12.0" rx="3" fill="#64748b"/>
<text x="430.0" y="400.0" fill="#5b667a" font-family="Inter, Arial, sans-serif" font-size="11" font-weight="400">58.7%</text>
<rect x="635.0" y="378.0" width="128.0" height="12.0" rx="3" fill="#e6ebf2"/>
<rect x="635.0" y="378.0" width="23.7" height="12.0" rx="3" fill="#64748b"/>
<text x="635.0" y="400.0" fill="#5b667a" font-family="Inter, Arial, sans-serif" font-size="11" font-weight="400">18.5%</text>
<rect x="840.0" y="378.0" width="128.0" height="12.0" rx="3" fill="#e6ebf2"/>
<rect x="840.0" y="378.0" width="16.6" height="12.0" rx="3" fill="#64748b"/>
<text x="840.0" y="400.0" fill="#5b667a" font-family="Inter, Arial, sans-serif" font-size="11" font-weight="400">13.0%</text>
<rect x="1045.0" y="378.0" width="128.0" height="12.0" rx="3" fill="#e6ebf2"/>
<rect x="1045.0" y="378.0" width="3.6" height="12.0" rx="3" fill="#64748b"/>
<text x="1045.0" y="400.0" fill="#5b667a" font-family="Inter, Arial, sans-serif" font-size="11" font-weight="400">2.8%</text>
<text x="36.0" y="450.0" fill="#64748b" font-family="Inter, Arial, sans-serif" font-size="13" font-weight="600">GLM-5 (stale)</text>
<text x="36.0" y="468.0" fill="#5b667a" font-family="Inter, Arial, sans-serif" font-size="11" font-weight="400">model; 2 runs; stale 63-task split; rerun required; offline v2</text>
<rect x="430.0" y="440.0" width="128.0" height="12.0" rx="3" fill="#e6ebf2"/>
<rect x="430.0" y="440.0" width="73.1" height="12.0" rx="3" fill="#64748b"/>
<text x="430.0" y="462.0" fill="#5b667a" font-family="Inter, Arial, sans-serif" font-size="11" font-weight="400">57.1%</text>
<rect x="635.0" y="440.0" width="128.0" height="12.0" rx="3" fill="#e6ebf2"/>
<rect x="635.0" y="440.0" width="21.3" height="12.0" rx="3" fill="#64748b"/>
<text x="635.0" y="462.0" fill="#5b667a" font-family="Inter, Arial, sans-serif" font-size="11" font-weight="400">16.7%</text>
<rect x="840.0" y="440.0" width="128.0" height="12.0" rx="3" fill="#e6ebf2"/>
<rect x="840.0" y="440.0" width="2.4" height="12.0" rx="3" fill="#64748b"/>
<text x="840.0" y="462.0" fill="#5b667a" font-family="Inter, Arial, sans-serif" font-size="11" font-weight="400">1.8%</text>
<rect x="1045.0" y="440.0" width="128.0" height="12.0" rx="3" fill="#e6ebf2"/>
<rect x="1045.0" y="440.0" width="0.0" height="12.0" rx="3" fill="#64748b"/>
<text x="1045.0" y="462.0" fill="#5b667a" font-family="Inter, Arial, sans-serif" font-size="11" font-weight="400">0.0%</text>
<text x="36.0" y="512.0" fill="#64748b" font-family="Inter, Arial, sans-serif" font-size="13" font-weight="600">Qwen3 Coder Next (stale)</text>
<text x="36.0" y="530.0" fill="#5b667a" font-family="Inter, Arial, sans-serif" font-size="11" font-weight="400">model; 2 runs; stale 63-task split; rerun required; offline v2</text>
<rect x="430.0" y="502.0" width="128.0" height="12.0" rx="3" fill="#e6ebf2"/>
<rect x="430.0" y="502.0" width="58.9" height="12.0" rx="3" fill="#64748b"/>
<text x="430.0" y="524.0" fill="#5b667a" font-family="Inter, Arial, sans-serif" font-size="11" font-weight="400">46.0%</text>
<rect x="635.0" y="502.0" width="128.0" height="12.0" rx="3" fill="#e6ebf2"/>
<rect x="635.0" y="502.0" width="9.5" height="12.0" rx="3" fill="#64748b"/>
<text x="635.0" y="524.0" fill="#5b667a" font-family="Inter, Arial, sans-serif" font-size="11" font-weight="400">7.4%</text>
<rect x="840.0" y="502.0" width="128.0" height="12.0" rx="3" fill="#e6ebf2"/>
<rect x="840.0" y="502.0" width="4.7" height="12.0" rx="3" fill="#64748b"/>
<text x="840.0" y="524.0" fill="#5b667a" font-family="Inter, Arial, sans-serif" font-size="11" font-weight="400">3.7%</text>
<rect x="1045.0" y="502.0" width="128.0" height="12.0" rx="3" fill="#e6ebf2"/>
<rect x="1045.0" y="502.0" width="1.8" height="12.0" rx="3" fill="#64748b"/>
<text x="1045.0" y="524.0" fill="#5b667a" font-family="Inter, Arial, sans-serif" font-size="11" font-weight="400">1.4%</text>
<text x="36.0" y="548.0" fill="#5b667a" font-family="Inter, Arial, sans-serif" font-size="11" font-weight="400">Source: tracked AuthZBench-SaaS baseline and redacted evidence JSON. Public-split evidence is not leaderboard ranking.</text>
</svg>
